<?xml version="1.0" encoding="utf-8"?>
<!-- Generator: Adobe Illustrator 26.0.1, SVG Export Plug-In . SVG Version: 6.00 Build 0)  -->
<svg version="1.1" id="Layer_1" xmlns="http://www.w3.org/2000/svg" xmlns:xlink="http://www.w3.org/1999/xlink" x="0px" y="0px"
	 viewBox="0 0 427.2 284.75" style="enable-background:new 0 0 427.2 284.75;" xml:space="preserve">
<style type="text/css">
	.st0{fill:#878686;}
	.st1{fill:#291713;}
	.st2{fill:#FFB345;}
	.st3{fill:#EB816D;}
	.st4{opacity:0.5;fill:#EB816D;}
	.st5{fill:#FFFBFD;}
	.st6{fill:#87706F;}
	.st7{clip-path:url(#SVGID_00000101785965331254390910000002031338568081177984_);fill:#EB816D;}
	.st8{clip-path:url(#SVGID_00000108278545412925578810000007838495688101167032_);fill:#EB816D;}
	.st9{fill:#FFFFFF;}
	.st10{fill:#FFD15C;}
</style>
<g>
	<g>
		<g>
			<rect x="33.37" y="147.25" class="st0" width="7.62" height="116.99"/>
			<path class="st1" d="M41.5,265.57c0,2.51-2.08,4.54-4.65,4.54H23.71c-2.57,0-4.65-2.03-4.65-4.54l0,0c0-2.51,2.08-4.54,4.65-4.54
				h13.13C39.41,261.02,41.5,263.06,41.5,265.57L41.5,265.57z"/>
			<rect x="50.82" y="147.25" class="st0" width="7.62" height="116.99"/>
			<rect x="33.37" y="147.25" class="st0" width="7.62" height="60.63"/>
			<rect x="50.82" y="147.25" class="st0" width="7.62" height="60.63"/>
			<path class="st1" d="M50.31,265.57c0,2.51,2.08,4.54,4.65,4.54h13.13c2.57,0,4.65-2.03,4.65-4.54l0,0c0-2.51-2.08-4.54-4.65-4.54
				H54.96C52.39,261.02,50.31,263.06,50.31,265.57L50.31,265.57z"/>
			<path class="st0" d="M31.99,132.97c-0.01,0.16-0.01,0.32-0.01,0.48v20.77c0,6.69,5.59,12.12,12.47,12.12h2.97
				c6.89,0,12.48-5.42,12.48-12.12v-20.77c0-0.16-0.01-0.32-0.01-0.48H31.99z"/>
			<path class="st2" d="M60.4,150.72l4.47-59.35c0-16.2-7.42-29.33-16.59-29.33h-3.95c-9.16,0-16.59,13.13-16.59,29.33l4.3,59.35
				H60.4z"/>
			<g>
				<path class="st3" d="M54.77,67.74c0,2.6-3.43,4.72-7.66,4.72l0,0c-4.23,0-7.66-2.11-7.66-4.72v-7.66c0-2.6,3.43-4.72,7.66-4.72
					l0,0c4.23,0,7.66,2.11,7.66,4.72V67.74z"/>
				<path class="st4" d="M47.11,55.37c-4.23,0-7.66,2.11-7.66,4.72v4.02c2.01,0.26,4.09,0.4,6.23,0.4h7.18
					c0.65,0,1.28-0.03,1.92-0.06v-4.36C54.77,57.48,51.34,55.37,47.11,55.37z"/>
			</g>
			<g>
				<path class="st3" d="M8.88,103.82c-0.83,4.07-1.57,8.48-2.23,13.26c-3.09,22.42-3.13,44.26-3.13,45.18
					c0,2.62,2.13,4.75,4.75,4.75l0,0c2.62,0,4.75-2.13,4.75-4.75c0-18.1,1.83-40.94,5.61-58.44H8.88z"/>
				<path class="st2" d="M17.78,108.05c1.12-5.89,2.44-11.31,3.97-15.92c3-9.05,6.8-14.98,11.44-15.25c2.62-0.15,4.62-2.4,4.47-5.02
					c-0.15-2.62-2.38-4.62-5.02-4.47c-11.73,0.67-19.8,14-24.58,40.65H17.78z"/>
				<path class="st2" d="M3.52,92.07"/>
			</g>
			<g>
				<path class="st3" d="M84.13,103.82c0.83,4.07,1.57,8.48,2.23,13.26c3.09,22.42,3.12,44.26,3.12,45.18
					c0,2.62-2.13,4.75-4.75,4.75l0,0c-2.62,0-4.75-2.13-4.75-4.75c0-18.1-1.83-40.94-5.61-58.44H84.13z"/>
				<path class="st2" d="M75.23,108.05c-3.32-17.45-8.41-30.76-15.41-31.16c-2.62-0.15-4.62-2.4-4.47-5.02
					c0.15-2.62,2.38-4.62,5.01-4.47c11.73,0.67,19.8,14,24.58,40.65H75.23z"/>
			</g>
			<path class="st1" d="M45,33.47l-0.59-0.54c0.07-0.08,1.76-1.88,3.54-1.65c0.89,0.11,1.63,0.7,2.18,1.73l-0.7,0.38
				c-0.43-0.8-0.96-1.24-1.58-1.32C46.7,31.93,45.4,33.03,45,33.47z"/>
			<g>
				<path class="st3" d="M66.2,33.23c0,10.46-7.53,28.95-16.83,28.95h-4.01c-9.29,0-16.83-18.49-16.83-28.95v-1.8
					c0-10.46,7.53-18.93,16.83-18.93h4.01c9.29,0,16.83,8.48,16.83,18.93V33.23z"/>
				<path class="st3" d="M29.74,27.39c-2.49,0.39-4.41,2.54-4.41,5.14c0,2.6,1.91,4.75,4.41,5.14V27.39z"/>
				<path class="st3" d="M65,35.67c2.49-0.39,4.41-2.54,4.41-5.14c0-2.6-1.91-4.75-4.41-5.14V35.67z"/>
				<g>
					<path class="st1" d="M39.22,30.66c0,1.18-0.96,2.14-2.14,2.14l0,0c-1.18,0-2.14-0.96-2.14-2.14l0,0c0-1.18,0.96-2.14,2.14-2.14
						l0,0C38.27,28.52,39.22,29.48,39.22,30.66L39.22,30.66z"/>
					<path class="st1" d="M60.59,30.66c0,1.18-0.96,2.14-2.14,2.14l0,0c-1.18,0-2.14-0.96-2.14-2.14l0,0c0-1.18,0.96-2.14,2.14-2.14
						l0,0C59.63,28.52,60.59,29.48,60.59,30.66L60.59,30.66z"/>
					<path class="st5" d="M41.22,40.68c0.46,2.42,2.98,4.27,6.02,4.27c3.04,0,5.55-1.85,6.01-4.27H41.22z"/>
				</g>
				<path class="st1" d="M40.29,34.8h-5.07c-2.58,0-4.68-2.1-4.68-4.68c0-2.58,2.1-4.68,4.68-4.68h5.07c2.58,0,4.68,2.1,4.68,4.68
					C44.96,32.7,42.87,34.8,40.29,34.8z M35.22,26.25c-2.14,0-3.88,1.74-3.88,3.88c0,2.14,1.74,3.88,3.88,3.88h5.07
					c2.14,0,3.88-1.74,3.88-3.88c0-2.14-1.74-3.88-3.88-3.88H35.22z"/>
				<path class="st1" d="M58.98,34.8h-5.07c-2.58,0-4.68-2.1-4.68-4.68c0-2.58,2.1-4.68,4.68-4.68h5.07c2.58,0,4.68,2.1,4.68,4.68
					C63.66,32.7,61.56,34.8,58.98,34.8z M53.91,26.25c-2.14,0-3.88,1.74-3.88,3.88c0,2.14,1.74,3.88,3.88,3.88h5.07
					c2.14,0,3.88-1.74,3.88-3.88c0-2.14-1.74-3.88-3.88-3.88H53.91z"/>
				
					<rect x="62.39" y="27.72" transform="matrix(0.6829 -0.7305 0.7305 0.6829 0.1078 56.4938)" class="st1" width="5.48" height="0.8"/>
				
					<rect x="28.94" y="27.13" transform="matrix(0.5545 -0.8322 0.8322 0.5545 -11.1106 37.3598)" class="st1" width="0.8" height="3.85"/>
				<path class="st6" d="M66.36,27.96c0,8.94-8.86,16.19-19.79,16.19l0,0c-10.93,0-19.79-7.25-19.79-16.19v-8.09
					c0-8.94,8.86-16.19,19.79-16.19l0,0c10.93,0,19.79,7.25,19.79,16.19V27.96z"/>
				<path class="st3" d="M66.2,35.23c0,10.46-7.53,18.93-16.83,18.93h-4.01c-9.29,0-16.83-8.47-16.83-18.93v-1.8
					c0-10.46,7.53-18.93,16.83-18.93h4.01c9.29,0,16.83,8.48,16.83,18.93V35.23z"/>
				<g>
					<path class="st1" d="M39.22,30.79c0,1.18-0.96,2.14-2.14,2.14l0,0c-1.18,0-2.14-0.96-2.14-2.14l0,0c0-1.18,0.96-2.14,2.14-2.14
						l0,0C38.26,28.66,39.22,29.61,39.22,30.79L39.22,30.79z"/>
					<path class="st1" d="M60.59,30.79c0,1.18-0.96,2.14-2.14,2.14l0,0c-1.18,0-2.14-0.96-2.14-2.14l0,0c0-1.18,0.96-2.14,2.14-2.14
						l0,0C59.63,28.66,60.59,29.61,60.59,30.79L60.59,30.79z"/>
					<path class="st5" d="M41.22,40.81c0.46,2.42,2.98,4.27,6.02,4.27s5.55-1.85,6.02-4.27H41.22z"/>
				</g>
				<path class="st3" d="M29.34,27.39c-2.49,0.39-4.41,2.54-4.41,5.14c0,2.6,1.91,4.75,4.41,5.14V27.39z"/>
				<path class="st3" d="M65.4,37.67c2.5-0.39,4.41-2.54,4.41-5.14c0-2.6-1.91-4.75-4.41-5.14V37.67z"/>
				<path class="st6" d="M69.57,11.1c0,4.54-3.68,8.21-8.21,8.21H45.8c-4.54,0-8.21-3.68-8.21-8.21l0,0c0-4.54,3.68-8.21,8.21-8.21
					h15.56C65.9,2.88,69.57,6.56,69.57,11.1L69.57,11.1z"/>
			</g>
		</g>
	</g>
</g>
<path class="st6" d="M68.4,12.65c-0.43,4.52-4.44,7.83-8.96,7.4l-15.49-1.47c-4.52-0.43-7.83-4.44-7.4-8.95l0,0
	c0.43-4.52,4.44-7.83,8.95-7.4L61,3.7C65.52,4.13,68.83,8.14,68.4,12.65L68.4,12.65z"/>
<path class="st6" d="M69.48,8.15c0.5,3.5-2.05,6.76-5.7,7.29l-19.2,2.76l-1.17-8.15c-0.5-3.5,2.05-6.76,5.7-7.29L68.31,0L69.48,8.15
	z"/>
<path class="st3" d="M427.2,62.14"/>
<g>
	<defs>
		<polygon id="SVGID_1_" points="87.75,76.83 64.87,88.03 66.82,117.52 87.75,114.17 		"/>
	</defs>
	<clipPath id="SVGID_00000097485461571837271970000003489088432251364758_">
		<use xlink:href="#SVGID_1_"  style="overflow:visible;"/>
	</clipPath>
	<path style="clip-path:url(#SVGID_00000097485461571837271970000003489088432251364758_);fill:#EB816D;" d="M75.23,108.05
		c-3.32-17.45-8.41-30.76-15.41-31.16c-2.62-0.15-4.62-2.4-4.47-5.02c0.15-2.62,2.38-4.62,5.01-4.47c11.73,0.67,19.8,14,24.58,40.65
		H75.23z"/>
</g>
<g>
	<defs>
		<polygon id="SVGID_00000136395914096870374820000015837783264987103140_" points="11.36,84.16 37.18,93.18 22.87,119.87 0,119.87 
					"/>
	</defs>
	<clipPath id="SVGID_00000112631534156298050240000009775932424798348197_">
		<use xlink:href="#SVGID_00000136395914096870374820000015837783264987103140_"  style="overflow:visible;"/>
	</clipPath>
	<path style="clip-path:url(#SVGID_00000112631534156298050240000009775932424798348197_);fill:#EB816D;" d="M17.78,108.05
		c1.12-5.89,2.44-11.31,3.97-15.92c3-9.05,6.8-14.98,11.44-15.25c2.62-0.15,4.62-2.4,4.47-5.02c-0.15-2.62-2.38-4.62-5.02-4.47
		c-11.73,0.67-19.8,14-24.58,40.65H17.78z"/>
</g>
<g>
	<g>
		<path class="st9" d="M116.48,76.83c-0.55,0-1.04-0.19-1.45-0.58c-0.42-0.39-0.62-0.88-0.62-1.49V20.8c0-0.61,0.21-1.11,0.62-1.49
			c0.42-0.39,0.9-0.58,1.45-0.58h8.97c0.88,0,1.56,0.24,2.03,0.71c0.47,0.47,0.76,0.84,0.87,1.12l14.61,26.23l14.61-26.23
			c0.17-0.28,0.46-0.65,0.87-1.12c0.42-0.47,1.09-0.71,2.03-0.71h8.88c0.61,0,1.12,0.19,1.54,0.58c0.42,0.39,0.62,0.89,0.62,1.49
			v53.96c0,0.61-0.21,1.11-0.62,1.49c-0.42,0.39-0.93,0.58-1.54,0.58h-9.88c-0.61,0-1.12-0.19-1.54-0.58
			c-0.42-0.39-0.62-0.88-0.62-1.49V43.63l-9.38,17.35c-0.22,0.5-0.55,0.94-1,1.33c-0.44,0.39-1.05,0.58-1.83,0.58h-4.32
			c-0.78,0-1.38-0.19-1.83-0.58c-0.44-0.39-0.8-0.83-1.08-1.33l-9.38-17.35v31.13c0,0.61-0.19,1.11-0.58,1.49
			c-0.39,0.39-0.89,0.58-1.49,0.58H116.48z"/>
		<path class="st9" d="M184.22,76.83c-0.61,0-1.11-0.19-1.49-0.58c-0.39-0.39-0.58-0.88-0.58-1.49V35.74c0-0.55,0.19-1.04,0.58-1.45
			c0.39-0.42,0.88-0.62,1.49-0.62h9.55c0.61,0,1.11,0.21,1.5,0.62c0.39,0.42,0.58,0.9,0.58,1.45v3.32c1.49-1.71,3.28-3.04,5.35-3.98
			c2.08-0.94,4.41-1.41,7.01-1.41h3.65c0.55,0,1.04,0.19,1.45,0.58c0.42,0.39,0.62,0.89,0.62,1.49v8.55c0,0.55-0.21,1.04-0.62,1.45
			s-0.9,0.62-1.45,0.62h-8.05c-2.27,0-4.03,0.62-5.27,1.87c-1.25,1.25-1.87,3-1.87,5.27v21.25c0,0.61-0.21,1.11-0.62,1.49
			c-0.42,0.39-0.93,0.58-1.54,0.58H184.22z"/>
		<path class="st10" d="M221.49,76.83c-0.61,0-1.11-0.19-1.5-0.58c-0.39-0.39-0.58-0.88-0.58-1.49V64.22c0-0.55,0.19-1.04,0.58-1.45
			c0.39-0.42,0.88-0.62,1.5-0.62h10.46c0.61,0,1.12,0.21,1.54,0.62s0.62,0.9,0.62,1.45v10.54c0,0.61-0.21,1.11-0.62,1.49
			c-0.42,0.39-0.93,0.58-1.54,0.58H221.49z"/>
		<path class="st10" d="M136.07,170.66c-5.53,0-10.13-0.79-13.78-2.37c-3.65-1.58-6.42-3.64-8.3-6.18
			c-1.88-2.54-2.88-5.26-2.99-8.14c0-0.44,0.18-0.84,0.54-1.2c0.36-0.36,0.79-0.54,1.29-0.54h10.46c0.77,0,1.37,0.14,1.78,0.42
			c0.42,0.28,0.79,0.64,1.12,1.08c0.44,0.83,1.06,1.63,1.87,2.41c0.8,0.78,1.85,1.4,3.15,1.87c1.3,0.47,2.92,0.71,4.86,0.71
			c3.21,0,5.63-0.5,7.26-1.49c1.63-1,2.45-2.35,2.45-4.07c0-1.22-0.44-2.23-1.33-3.03c-0.89-0.8-2.31-1.52-4.28-2.16
			c-1.96-0.63-4.58-1.29-7.84-1.95c-4.21-0.88-7.79-2.03-10.75-3.45c-2.96-1.41-5.22-3.26-6.77-5.56c-1.55-2.3-2.32-5.16-2.32-8.59
			c0-3.37,0.95-6.39,2.86-9.05c1.91-2.66,4.58-4.73,8.01-6.23c3.43-1.49,7.5-2.24,12.2-2.24c3.82,0,7.18,0.5,10.09,1.49
			c2.91,1,5.35,2.33,7.35,3.99c1.99,1.66,3.5,3.42,4.52,5.27c1.02,1.85,1.56,3.67,1.62,5.44c0,0.44-0.17,0.84-0.5,1.2
			c-0.33,0.36-0.75,0.54-1.25,0.54h-10.96c-0.61,0-1.13-0.11-1.58-0.33c-0.44-0.22-0.83-0.58-1.16-1.08
			c-0.33-1.22-1.2-2.28-2.62-3.2c-1.41-0.91-3.25-1.37-5.52-1.37c-2.44,0-4.33,0.43-5.69,1.29c-1.36,0.86-2.03,2.17-2.03,3.94
			c0,1.11,0.37,2.08,1.12,2.91s1.99,1.55,3.74,2.16c1.74,0.61,4.14,1.25,7.18,1.91c5.04,0.94,9.1,2.12,12.2,3.53
			c3.1,1.41,5.37,3.24,6.81,5.48c1.44,2.24,2.16,5.05,2.16,8.43c0,3.76-1.07,7.01-3.2,9.75c-2.13,2.74-5.08,4.83-8.84,6.27
			C145.26,169.94,140.94,170.66,136.07,170.66z"/>
		<path class="st10" d="M188.37,170.66c-6.53,0-11.73-1.77-15.61-5.31c-3.87-3.54-5.89-8.8-6.06-15.77c0-0.39,0-0.88,0-1.49
			c0-0.61,0-1.08,0-1.41c0.17-4.37,1.15-8.12,2.95-11.25c1.8-3.13,4.29-5.51,7.47-7.14c3.18-1.63,6.9-2.45,11.17-2.45
			c4.87,0,8.9,0.97,12.08,2.91c3.18,1.94,5.58,4.57,7.18,7.89c1.6,3.32,2.41,7.11,2.41,11.37v1.99c0,0.61-0.21,1.11-0.62,1.49
			c-0.42,0.39-0.9,0.58-1.45,0.58h-26.56c0,0.06,0,0.14,0,0.25c0,0.11,0,0.22,0,0.33c0.05,1.61,0.33,3.07,0.83,4.4
			s1.27,2.38,2.32,3.15c1.05,0.78,2.32,1.16,3.82,1.16c1.11,0,2.03-0.18,2.78-0.54c0.75-0.36,1.37-0.77,1.87-1.25
			c0.5-0.47,0.88-0.87,1.16-1.2c0.5-0.55,0.9-0.9,1.2-1.04c0.3-0.14,0.79-0.21,1.45-0.21h10.29c0.55,0,1.01,0.15,1.37,0.46
			c0.36,0.3,0.51,0.73,0.46,1.29c-0.06,0.94-0.53,2.08-1.41,3.4c-0.89,1.33-2.17,2.64-3.86,3.94c-1.69,1.3-3.81,2.37-6.35,3.2
			C194.7,170.25,191.74,170.66,188.37,170.66z M181.31,143.85h14.03v-0.17c0-1.77-0.26-3.32-0.79-4.65
			c-0.53-1.33-1.33-2.35-2.41-3.07c-1.08-0.72-2.37-1.08-3.86-1.08s-2.75,0.36-3.78,1.08c-1.02,0.72-1.81,1.74-2.37,3.07
			c-0.55,1.33-0.83,2.88-0.83,4.65V143.85z"/>
		<path class="st10" d="M230.71,170.66c-2.99,0-5.66-0.57-8.01-1.7c-2.35-1.13-4.22-2.67-5.6-4.61c-1.38-1.94-2.08-4.12-2.08-6.56
			c0-3.93,1.6-7.04,4.82-9.34c3.21-2.3,7.47-3.86,12.78-4.69l10.38-1.58v-1.16c0-1.99-0.42-3.51-1.25-4.57
			c-0.83-1.05-2.35-1.58-4.57-1.58c-1.55,0-2.81,0.3-3.78,0.91c-0.97,0.61-1.73,1.44-2.28,2.49c-0.5,0.72-1.19,1.08-2.08,1.08h-9.3
			c-0.61,0-1.08-0.18-1.41-0.54c-0.33-0.36-0.47-0.79-0.42-1.29c0-1,0.37-2.14,1.12-3.45c0.75-1.3,1.9-2.59,3.45-3.86
			c1.55-1.27,3.54-2.32,5.98-3.15c2.43-0.83,5.37-1.25,8.8-1.25c3.6,0,6.67,0.42,9.21,1.25c2.54,0.83,4.61,1.99,6.18,3.49
			c1.58,1.49,2.75,3.25,3.53,5.27c0.77,2.02,1.16,4.25,1.16,6.68v25.24c0,0.61-0.21,1.11-0.62,1.49c-0.42,0.39-0.9,0.58-1.45,0.58
			h-9.63c-0.61,0-1.11-0.19-1.49-0.58c-0.39-0.39-0.58-0.88-0.58-1.49v-2.91c-0.72,1.05-1.69,2.02-2.91,2.91
			c-1.22,0.89-2.64,1.59-4.28,2.12C234.76,170.4,232.86,170.66,230.71,170.66z M234.61,161.2c1.6,0,3.06-0.34,4.36-1.04
			c1.3-0.69,2.32-1.77,3.07-3.24c0.75-1.47,1.12-3.31,1.12-5.52v-1.16l-7.06,1.25c-2.6,0.44-4.5,1.12-5.69,2.03
			c-1.19,0.91-1.78,1.98-1.78,3.2c0,0.94,0.28,1.74,0.83,2.41c0.55,0.66,1.27,1.18,2.16,1.54C232.5,161.02,233.5,161.2,234.61,161.2
			z"/>
		<path class="st10" d="M268.81,169.83c-0.61,0-1.11-0.19-1.49-0.58c-0.39-0.39-0.58-0.88-0.58-1.49v-39.02
			c0-0.61,0.19-1.11,0.58-1.49c0.39-0.39,0.88-0.58,1.49-0.58h9.55c0.61,0,1.11,0.19,1.49,0.58c0.39,0.39,0.58,0.89,0.58,1.49v3.15
			c1.44-1.71,3.32-3.15,5.64-4.32c2.33-1.16,5.06-1.74,8.22-1.74c3.21,0,6.05,0.72,8.51,2.16c2.46,1.44,4.4,3.56,5.81,6.35
			c1.41,2.79,2.12,6.21,2.12,10.25v23.16c0,0.61-0.21,1.11-0.62,1.49c-0.42,0.39-0.9,0.58-1.45,0.58H298.2
			c-0.55,0-1.04-0.19-1.45-0.58c-0.42-0.39-0.62-0.88-0.62-1.49V145.1c0-2.6-0.62-4.61-1.87-6.02c-1.25-1.41-3.09-2.12-5.52-2.12
			c-2.27,0-4.08,0.71-5.44,2.12c-1.36,1.41-2.03,3.42-2.03,6.02v22.66c0,0.61-0.21,1.11-0.62,1.49c-0.42,0.39-0.9,0.58-1.45,0.58
			H268.81z"/>
		<path class="st10" d="M320.2,131.81c-0.5,0-0.9-0.17-1.2-0.5c-0.3-0.33-0.43-0.8-0.37-1.41l2.49-16.19
			c0.11-0.72,0.4-1.37,0.87-1.95c0.47-0.58,1.18-0.87,2.12-0.87h9.71c0.44,0,0.82,0.17,1.12,0.5c0.3,0.33,0.46,0.72,0.46,1.16
			c0,0.33-0.06,0.64-0.17,0.91L329,129.49c-0.22,0.55-0.55,1.08-1,1.58c-0.44,0.5-1.13,0.75-2.08,0.75H320.2z"/>
		<path class="st9" d="M359.71,170.66c-3.6,0-6.66-0.4-9.17-1.2c-2.52-0.8-4.57-1.78-6.14-2.95s-2.75-2.37-3.53-3.61
			c-0.78-1.25-1.19-2.31-1.25-3.2c-0.06-0.61,0.14-1.12,0.58-1.54c0.44-0.42,0.91-0.62,1.41-0.62h9.46c0.17,0,0.3,0.03,0.42,0.08
			c0.11,0.06,0.28,0.17,0.5,0.33c0.72,0.39,1.44,0.87,2.16,1.45c0.72,0.58,1.55,1.09,2.49,1.54c0.94,0.44,2.08,0.66,3.4,0.66
			c1.55,0,2.85-0.3,3.9-0.91c1.05-0.61,1.58-1.52,1.58-2.74c0-0.88-0.25-1.62-0.75-2.2s-1.51-1.15-3.03-1.7
			c-1.52-0.55-3.81-1.11-6.85-1.66c-2.88-0.66-5.4-1.54-7.55-2.61c-2.16-1.08-3.82-2.49-4.98-4.23c-1.16-1.74-1.74-3.86-1.74-6.35
			c0-2.21,0.72-4.34,2.16-6.39c1.44-2.05,3.54-3.72,6.31-5.02c2.77-1.3,6.17-1.95,10.21-1.95c3.21,0,5.99,0.37,8.34,1.12
			c2.35,0.75,4.34,1.7,5.98,2.86c1.63,1.16,2.86,2.35,3.69,3.57c0.83,1.22,1.27,2.33,1.33,3.32c0.05,0.55-0.11,1.04-0.5,1.45
			c-0.39,0.42-0.83,0.62-1.33,0.62h-8.63c-0.22,0-0.44-0.04-0.66-0.12c-0.22-0.08-0.42-0.18-0.58-0.29
			c-0.66-0.33-1.33-0.77-1.99-1.33c-0.66-0.55-1.44-1.05-2.32-1.49c-0.89-0.44-1.99-0.66-3.32-0.66c-1.49,0-2.66,0.33-3.49,1
			s-1.25,1.52-1.25,2.57c0,0.72,0.23,1.38,0.71,1.99c0.47,0.61,1.44,1.16,2.91,1.66c1.47,0.5,3.75,1.05,6.85,1.66
			c3.82,0.61,6.86,1.59,9.13,2.95c2.27,1.36,3.87,2.93,4.81,4.73c0.94,1.8,1.41,3.69,1.41,5.69c0,2.66-0.79,5.01-2.37,7.06
			c-1.58,2.05-3.92,3.64-7.02,4.77C367.9,170.1,364.14,170.66,359.71,170.66z"/>
		<path class="st9" d="M116.48,262.84c-0.55,0-1.04-0.19-1.45-0.58c-0.42-0.39-0.62-0.88-0.62-1.49V206.8
			c0-0.61,0.21-1.11,0.62-1.49c0.42-0.39,0.9-0.58,1.45-0.58h8.97c0.88,0,1.56,0.24,2.03,0.71c0.47,0.47,0.76,0.84,0.87,1.12
			l14.61,26.23l14.61-26.23c0.17-0.28,0.46-0.65,0.87-1.12c0.42-0.47,1.09-0.71,2.03-0.71h8.88c0.61,0,1.12,0.2,1.54,0.58
			c0.42,0.39,0.62,0.89,0.62,1.49v53.96c0,0.61-0.21,1.11-0.62,1.49c-0.42,0.39-0.93,0.58-1.54,0.58h-9.88
			c-0.61,0-1.12-0.19-1.54-0.58c-0.42-0.39-0.62-0.88-0.62-1.49v-31.13l-9.38,17.35c-0.22,0.5-0.55,0.94-1,1.33
			c-0.44,0.39-1.05,0.58-1.83,0.58h-4.32c-0.78,0-1.38-0.19-1.83-0.58c-0.44-0.39-0.8-0.83-1.08-1.33l-9.38-17.35v31.13
			c0,0.61-0.19,1.11-0.58,1.49c-0.39,0.39-0.89,0.58-1.49,0.58H116.48z"/>
		<path class="st9" d="M198,263.67c-3.16,0-5.96-0.72-8.43-2.16c-2.46-1.44-4.39-3.56-5.77-6.35c-1.38-2.79-2.08-6.21-2.08-10.25
			v-23.16c0-0.61,0.19-1.11,0.58-1.49c0.39-0.39,0.88-0.58,1.49-0.58h10.38c0.61,0,1.11,0.19,1.5,0.58
			c0.39,0.39,0.58,0.89,0.58,1.49v22.66c0,5.42,2.43,8.14,7.31,8.14c2.27,0,4.08-0.71,5.44-2.12c1.36-1.41,2.03-3.42,2.03-6.02
			v-22.66c0-0.61,0.19-1.11,0.58-1.49c0.39-0.39,0.88-0.58,1.5-0.58h10.38c0.61,0,1.11,0.19,1.49,0.58
			c0.39,0.39,0.58,0.89,0.58,1.49v39.02c0,0.61-0.19,1.11-0.58,1.49c-0.39,0.39-0.89,0.58-1.49,0.58h-9.63
			c-0.55,0-1.04-0.19-1.45-0.58c-0.42-0.39-0.62-0.88-0.62-1.49v-3.16c-1.44,1.99-3.31,3.5-5.6,4.52
			C203.88,263.15,201.15,263.67,198,263.67z"/>
		<path class="st9" d="M253.12,263.67c-3.6,0-6.66-0.4-9.17-1.2c-2.52-0.8-4.57-1.78-6.14-2.95c-1.58-1.16-2.75-2.37-3.53-3.61
			c-0.78-1.25-1.19-2.31-1.25-3.2c-0.06-0.61,0.14-1.12,0.58-1.54c0.44-0.42,0.91-0.62,1.41-0.62h9.46c0.17,0,0.3,0.03,0.42,0.08
			c0.11,0.06,0.28,0.17,0.5,0.33c0.72,0.39,1.44,0.87,2.16,1.45c0.72,0.58,1.55,1.09,2.49,1.54c0.94,0.44,2.08,0.66,3.4,0.66
			c1.55,0,2.85-0.3,3.9-0.91c1.05-0.61,1.58-1.52,1.58-2.74c0-0.88-0.25-1.62-0.75-2.2s-1.51-1.15-3.03-1.7
			c-1.52-0.55-3.81-1.11-6.85-1.66c-2.88-0.66-5.4-1.54-7.55-2.61c-2.16-1.08-3.82-2.49-4.98-4.23c-1.16-1.74-1.74-3.86-1.74-6.35
			c0-2.21,0.72-4.34,2.16-6.39c1.44-2.05,3.54-3.72,6.31-5.02c2.77-1.3,6.17-1.95,10.21-1.95c3.21,0,5.99,0.37,8.34,1.12
			c2.35,0.75,4.34,1.7,5.98,2.86c1.63,1.16,2.86,2.35,3.69,3.57c0.83,1.22,1.27,2.33,1.33,3.32c0.05,0.55-0.11,1.04-0.5,1.45
			c-0.39,0.42-0.83,0.62-1.33,0.62h-8.63c-0.22,0-0.44-0.04-0.66-0.12c-0.22-0.08-0.42-0.18-0.58-0.29
			c-0.66-0.33-1.33-0.77-1.99-1.33c-0.66-0.55-1.44-1.05-2.32-1.49c-0.89-0.44-1.99-0.66-3.32-0.66c-1.49,0-2.66,0.33-3.49,1
			s-1.25,1.52-1.25,2.57c0,0.72,0.23,1.38,0.71,1.99c0.47,0.61,1.44,1.16,2.91,1.66c1.47,0.5,3.75,1.05,6.85,1.66
			c3.82,0.61,6.86,1.59,9.13,2.95c2.27,1.36,3.87,2.93,4.81,4.73c0.94,1.8,1.41,3.69,1.41,5.69c0,2.66-0.79,5.01-2.37,7.06
			c-1.58,2.05-3.92,3.64-7.02,4.77C261.31,263.1,257.55,263.67,253.12,263.67z"/>
		<path class="st9" d="M283.25,213.44c-0.61,0-1.11-0.19-1.49-0.58c-0.39-0.39-0.58-0.88-0.58-1.49v-7.39
			c0-0.61,0.19-1.12,0.58-1.54c0.39-0.42,0.88-0.62,1.49-0.62h9.88c0.61,0,1.12,0.21,1.54,0.62s0.62,0.93,0.62,1.54v7.39
			c0,0.61-0.21,1.11-0.62,1.49c-0.42,0.39-0.93,0.58-1.54,0.58H283.25z M283.34,262.84c-0.61,0-1.11-0.19-1.49-0.58
			c-0.39-0.39-0.58-0.88-0.58-1.49v-39.02c0-0.61,0.19-1.11,0.58-1.49c0.39-0.39,0.88-0.58,1.49-0.58h9.8
			c0.55,0,1.04,0.19,1.45,0.58c0.42,0.39,0.62,0.89,0.62,1.49v39.02c0,0.61-0.21,1.11-0.62,1.49c-0.42,0.39-0.9,0.58-1.45,0.58
			H283.34z"/>
		<path class="st9" d="M324.76,263.67c-4.1,0-7.72-0.75-10.88-2.24c-3.15-1.49-5.66-3.67-7.51-6.52c-1.85-2.85-2.86-6.27-3.03-10.25
			c-0.06-0.88-0.08-2-0.08-3.36c0-1.36,0.03-2.48,0.08-3.36c0.17-4.04,1.16-7.48,2.99-10.34c1.83-2.85,4.33-5.02,7.51-6.52
			c3.18-1.49,6.82-2.24,10.92-2.24c3.82,0,7.08,0.54,9.8,1.62c2.71,1.08,4.93,2.42,6.64,4.03c1.71,1.61,3,3.25,3.86,4.94
			c0.86,1.69,1.31,3.17,1.37,4.44c0.05,0.55-0.14,1.04-0.58,1.45c-0.44,0.42-0.94,0.62-1.5,0.62h-10.54c-0.61,0-1.08-0.14-1.41-0.42
			c-0.33-0.28-0.64-0.69-0.91-1.25c-0.66-1.71-1.51-2.93-2.53-3.65c-1.02-0.72-2.34-1.08-3.94-1.08c-2.21,0-3.92,0.72-5.11,2.16
			c-1.19,1.44-1.84,3.65-1.95,6.64c-0.06,2.21-0.06,4.18,0,5.89c0.11,3.04,0.76,5.26,1.95,6.64c1.19,1.38,2.89,2.08,5.11,2.08
			c1.71,0,3.07-0.36,4.07-1.08c1-0.72,1.8-1.94,2.41-3.65c0.28-0.55,0.58-0.97,0.91-1.25c0.33-0.28,0.8-0.42,1.41-0.42h10.54
			c0.55,0,1.05,0.21,1.5,0.62c0.44,0.42,0.63,0.9,0.58,1.45c-0.06,0.94-0.33,2.03-0.83,3.28c-0.5,1.25-1.27,2.56-2.32,3.94
			c-1.05,1.38-2.42,2.67-4.11,3.86c-1.69,1.19-3.72,2.15-6.1,2.86C330.68,263.3,327.92,263.67,324.76,263.67z"/>
	</g>
</g>
</svg>
